
<svg id="Layer_1" data-name="Layer 1" xmlns="http://www.w3.org/2000/svg" xmlns:xlink="http://www.w3.org/1999/xlink" version="1.1" viewBox="0 0 1042.38 1080">
  <defs>
    <style>
      .cls-1 {
        fill: #00aeee;
      }

      .cls-1, .cls-2, .cls-3, .cls-4, .cls-5, .cls-6, .cls-7 {
        stroke-width: 0px;
      }

      .cls-2 {
        fill: #34c4ef;
      }

      .cls-3 {
        fill: #01afee;
      }

      .cls-4 {
        fill: #35c4ef;
      }

      .cls-5 {
        fill: #35c5ef;
      }

      .cls-6 {
        fill: #69c8d1;
      }

      .cls-7 {
        fill: #02afee;
      }
    </style>
  </defs>
  <path class="cls-1" d="M596.41,538.94c.27,49.59-38.01,88.45-87.83,89.16-50.35.72-91.85-39.32-91.89-88.66-.04-48.55,42.51-90.42,91.39-89.96,48.35.46,88.06,40.68,88.33,89.46Z"/>
  <path class="cls-3" d="M925.3,751.76c.31,26.06-14.24,44.42-38.72,48.86-22.68,4.11-48.15-8.93-53.66-32.14-9.29-39.13-38.14-56.99-70.47-72.44-15.8-7.55-31.57-7.67-48.57-2.32-30.42,9.58-56.16-4.61-63.63-33.27-6.24-23.96,9.46-50.94,33.72-57.93,26.82-7.73,51.99,7.28,60.64,36.16,14.4,48.04,72.83,81,119.54,67.42,31.72-9.22,60.75,12.47,61.15,45.68Z"/>
  <path class="cls-3" d="M88.23,324.2c.55-23.34,16.71-42.28,39.15-45.89,24.16-3.89,48.2,7.75,53.75,31.75,9.39,40.63,39.89,57.72,72.85,73.19,13.73,6.45,27.72,7.38,43.23,2.15,30.5-10.29,57.51,3.29,65.39,30.42,7.95,27.39-7.06,52.89-35.52,60.36-27.94,7.33-50.26-8.1-58.97-40.76-10.78-40.42-74.37-75.85-115.6-64.4-35.59,9.88-65.1-11.61-64.27-46.81Z"/>
  <path class="cls-2" d="M88.23,751.99c.19-31.94,27.71-53.87,58.65-46.72,55.07,12.72,105.7-15.83,122.45-69.06,8.06-25.62,35.59-40.93,60.62-33.73,25.3,7.28,40.11,34.82,32.73,60.87-6.84,24.12-32.58,38.65-58.4,32.96-55.78-12.29-105.76,16.31-121.56,69.57-6.77,22.81-29.65,38.14-52.54,35.2-25.5-3.28-42.09-22.69-41.94-49.09Z"/>
  <path class="cls-6" d="M500.53,215.55c-3.97-24.68-2.91-50.41-27.96-69.63-21.5-16.49-18.9-50.3.34-68.02,17.74-16.35,50.88-16.19,67.45.32,18.95,18.88,19.28,49.22.75,68.72-36.7,38.61-36.61,98.06.2,138.88,18.53,20.55,18.09,50.2-1.02,68.81-19.34,18.83-47.17,19.36-66.43,1.27-19.86-18.66-22.62-49.83-1.9-68.21,22.38-19.86,25.43-44.82,28.57-72.14Z"/>
  <path class="cls-6" d="M502.73,1014.24c-15.34.52-30.27-8.94-39.27-27.05-9.65-19.42-7.09-38.2,8.26-53.43,28.73-28.5,31.2-63.16,26.02-100.18-2.18-15.54-9.67-27.12-21.54-37.76-23.26-20.83-23.8-51.9-3.15-72.24,16.67-16.41,50.37-16.2,67.56.43,19.98,19.33,18.35,50.36-3.8,72.22-30.68,30.28-30.76,102.59.75,131.54,18.13,16.66,20.87,36.53,13.6,57.72-6.63,19.35-22.41,28.49-48.42,28.74Z"/>
  <path class="cls-2" d="M924.95,324.83c.35,34.18-25.9,54.99-59.79,47.39-51.98-11.65-104.48,18.79-121.32,70.34-9.07,27.77-32.98,41.04-59.43,33-25.55-7.77-40.67-33.18-34.01-57.17,7.35-26.48,31.94-41.25,58.99-35.42,55.36,11.93,104.06-16.2,121.88-70.39,8.11-24.67,29.95-38.13,55.33-34.1,22.8,3.62,38.11,22.12,38.36,46.36Z"/>
  <path class="cls-5" d="M839.49,510.76c-26.35.86-52.07-23.38-52.13-49.12-.06-23.91,22.3-47.51,46.5-49.08,25.22-1.64,51.84,23.6,51.84,49.14,0,24.09-22.81,48.31-46.21,49.07Z"/>
  <path class="cls-7" d="M836.26,665.07c-26.31-.4-48.79-23.1-48.66-49.12.13-25.88,23.2-48.04,49.71-47.76,26.51.28,48.84,22.97,48.24,49.02-.62,27.1-22.43,48.27-49.29,47.86Z"/>
  <path class="cls-6" d="M653.32,216.08c-.05,26.31-22.15,47.78-49.25,47.84-28.03.06-50.24-22.88-49.15-50.77.97-24.75,23.29-45.16,49.35-45.1,26.9.06,49.09,21.79,49.05,48.04Z"/>
  <path class="cls-7" d="M174.4,510.61c-25.54-.86-46.35-24.94-44.84-51.89,1.42-25.29,23.5-46.34,48.33-46.08,27.07.29,49.6,24.67,47.96,51.91-1.56,25.95-25.01,46.94-51.44,46.05Z"/>
  <path class="cls-6" d="M603.84,909.33c-27.53-.06-48.21-20.49-48.48-47.88-.25-25.49,23.38-48.5,49.39-48.11,26.81.4,48.47,22.15,48.67,48.88.19,25.46-22.65,47.17-49.58,47.11Z"/>
  <path class="cls-6" d="M409.21,168.05c27.02.05,48.85,21.28,49.01,47.69.17,26.46-21.37,47.83-48.52,48.15-28.41.34-47.28-18.59-47.55-47.69-.27-28.82,18.67-48.2,47.05-48.15Z"/>
  <path class="cls-4" d="M129.61,615.46c.4-27.84,20.77-47.38,48.88-46.88,26.77.48,48,22.54,47.31,49.17-.68,26.35-23.28,47.86-49.65,47.26-27.44-.62-46.95-21.39-46.54-49.55Z"/>
  <path class="cls-6" d="M410.34,909.27c-29.12.29-47.7-17.79-48.19-46.88-.46-27.58,19.62-48.58,46.97-49.09,26.2-.49,48.81,21.52,49.08,47.79.28,27.28-20.2,47.9-47.86,48.18Z"/>
  <path class="cls-3" d="M275.82,245.81c27.01.51,47.97,22.3,47.32,49.2-.62,26-23.07,47.43-49.83,47.56-25.3.13-47.67-23.39-47.32-49.77.34-25.77,23.37-47.5,49.83-47Z"/>
  <path class="cls-4" d="M786.98,294.8c-.49,25.87-22.12,48.06-46.59,47.8-28.21-.3-50.86-23.53-49.6-50.86,1.21-26.17,22.01-45.67,48.59-45.54,28.31.13,48.13,20.38,47.6,48.6Z"/>
  <path class="cls-5" d="M273.62,833.2c-26.45-.29-48.35-23.1-47.58-49.55.73-24.99,22.56-45.83,48.17-46,27.63-.18,49.57,21.02,49.03,47.39-.53,26.08-23.57,48.44-49.62,48.15Z"/>
  <path class="cls-3" d="M739.52,737.33c27.53.12,48.04,21.08,47.66,48.68-.37,26.01-20.81,46.56-46.88,47.14-25.98.58-49.06-21.76-49.55-47.94-.49-26.3,21.62-48,48.78-47.88Z"/>
</svg>